<svg xmlns="http://www.w3.org/2000/svg" viewBox="0 0 1200 500" role="img" aria-label="Illustration of the Sandton financial district skyline at dusk">
  <defs>
    <linearGradient id="sky1" x1="0" y1="0" x2="0" y2="1">
      <stop offset="0" stop-color="#FAFAF6"/>
      <stop offset="0.62" stop-color="#F7E7A8"/>
      <stop offset="1" stop-color="#F2B705"/>
    </linearGradient>
  </defs>
  <rect width="1200" height="500" fill="url(#sky1)"/>
  <circle cx="980" cy="150" r="60" fill="#FAFAF6" opacity="0.85"/>
  <g fill="#141414">
    <rect x="60" y="250" width="70" height="190"/>
    <rect x="145" y="200" width="90" height="240"/>
    <rect x="250" y="290" width="60" height="150"/>
    <rect x="325" y="150" width="105" height="290"/>
    <rect x="445" y="230" width="80" height="210"/>
    <rect x="540" y="110" width="120" height="330"/>
    <rect x="675" y="260" width="70" height="180"/>
    <rect x="760" y="185" width="95" height="255"/>
    <rect x="870" y="245" width="70" height="195"/>
    <rect x="955" y="205" width="105" height="235"/>
    <rect x="1075" y="270" width="65" height="170"/>
  </g>
  <g fill="#F2B705" opacity="0.9">
    <rect x="160" y="220" width="12" height="12"/><rect x="185" y="220" width="12" height="12"/><rect x="210" y="220" width="12" height="12"/>
    <rect x="160" y="255" width="12" height="12"/><rect x="210" y="255" width="12" height="12"/>
    <rect x="345" y="175" width="12" height="14"/><rect x="375" y="175" width="12" height="14"/><rect x="405" y="175" width="12" height="14"/>
    <rect x="345" y="215" width="12" height="14"/><rect x="405" y="215" width="12" height="14"/>
    <rect x="345" y="255" width="12" height="14"/><rect x="375" y="255" width="12" height="14"/>
    <rect x="560" y="135" width="14" height="14"/><rect x="595" y="135" width="14" height="14"/><rect x="630" y="135" width="14" height="14"/>
    <rect x="560" y="180" width="14" height="14"/><rect x="630" y="180" width="14" height="14"/>
    <rect x="560" y="225" width="14" height="14"/><rect x="595" y="225" width="14" height="14"/>
    <rect x="780" y="210" width="12" height="12"/><rect x="810" y="210" width="12" height="12"/>
    <rect x="975" y="230" width="12" height="12"/><rect x="1010" y="230" width="12" height="12"/><rect x="975" y="265" width="12" height="12"/>
  </g>
  <rect x="0" y="438" width="1200" height="62" fill="#141414"/>
  <g font-family="Arial, Helvetica, sans-serif">
    <text x="60" y="476" font-size="20" font-weight="bold" fill="#FAFAF6" letter-spacing="1">CAPITAL</text>
    <text x="1140" y="476" text-anchor="end" font-size="15" font-weight="bold" fill="#F2B705" letter-spacing="2">WHERE THE BANK MONEY SITS</text>
  </g>
</svg>
